<svg width="511" height="84" viewBox="0 0 511 84" fill="none" xmlns="http://www.w3.org/2000/svg">
<path d="M183.904 81.1999C179.523 81.1999 175.575 80.3006 172.061 78.502C168.597 76.6521 165.872 74.1085 163.885 70.8711C161.949 67.6337 160.981 63.9595 160.981 59.8485C160.981 55.7376 161.949 52.0634 163.885 48.826C165.872 45.5886 168.597 43.0707 172.061 41.2721C175.575 39.4222 179.523 38.4972 183.904 38.4972C188.234 38.4972 192.003 39.4222 195.212 41.2721C198.472 43.0707 200.841 45.6657 202.318 49.0573L193.073 54.0675C190.933 50.2648 187.852 48.3635 183.827 48.3635C180.72 48.3635 178.148 49.3913 176.11 51.4468C174.073 53.5022 173.054 56.3028 173.054 59.8485C173.054 63.3943 174.073 66.1948 176.11 68.2503C178.148 70.3058 180.72 71.3336 183.827 71.3336C187.902 71.3336 190.984 69.4322 193.073 65.6296L202.318 70.7169C200.841 74.0057 198.472 76.575 195.212 78.425C192.003 80.2749 188.234 81.1999 183.904 81.1999Z" fill="#0A2558"/>
<path d="M223.629 81.1999C218.994 81.1999 215.377 79.9666 212.779 77.5C210.182 74.982 208.883 71.4363 208.883 66.8629V23.3894H220.802V66.1692C220.802 67.9163 221.235 69.2781 222.101 70.2544C223.018 71.1794 224.292 71.6419 225.922 71.6419C226.533 71.6419 227.144 71.5648 227.755 71.4106C228.418 71.2565 228.927 71.0766 229.283 70.8711L229.818 80.1978C227.832 80.8659 225.769 81.1999 223.629 81.1999Z" fill="#0A2558"/>
<path d="M254.484 81.1999C250.155 81.1999 246.258 80.3006 242.794 78.502C239.381 76.6521 236.707 74.1085 234.771 70.8711C232.835 67.6337 231.868 63.9595 231.868 59.8485C231.868 55.7376 232.835 52.0634 234.771 48.826C236.707 45.5886 239.381 43.0707 242.794 41.2721C246.258 39.4222 250.155 38.4972 254.484 38.4972C258.814 38.4972 262.685 39.4222 266.098 41.2721C269.511 43.0707 272.185 45.5886 274.121 48.826C276.057 52.0634 277.025 55.7376 277.025 59.8485C277.025 63.9595 276.057 67.6337 274.121 70.8711C272.185 74.1085 269.511 76.6521 266.098 78.502C262.685 80.3006 258.814 81.1999 254.484 81.1999ZM254.484 71.3336C257.541 71.3336 260.037 70.3058 261.972 68.2503C263.959 66.1435 264.952 63.3429 264.952 59.8485C264.952 56.3542 263.959 53.5793 261.972 51.5238C260.037 49.417 257.541 48.3635 254.484 48.3635C251.428 48.3635 248.907 49.417 246.92 51.5238C244.933 53.5793 243.94 56.3542 243.94 59.8485C243.94 63.3429 244.933 66.1435 246.92 68.2503C248.907 70.3058 251.428 71.3336 254.484 71.3336Z" fill="#0A2558"/>
<path d="M326.405 39.1138V80.5832H315.097V75.6501C313.518 77.4486 311.633 78.8361 309.442 79.8124C307.252 80.7374 304.883 81.1999 302.337 81.1999C296.937 81.1999 292.658 79.6326 289.5 76.498C286.342 73.3633 284.763 68.7128 284.763 62.5464V39.1138H296.682V60.7735C296.682 67.4538 299.458 70.794 305.011 70.794C307.863 70.794 310.156 69.869 311.888 68.0191C313.619 66.1178 314.485 63.3172 314.485 59.6173V39.1138H326.405Z" fill="#0A2558"/>
<path d="M379.319 23.3894V80.5832H367.934V75.8042C364.98 79.4013 360.701 81.1999 355.098 81.1999C351.227 81.1999 347.712 80.3263 344.554 78.5791C341.446 76.832 339.001 74.3397 337.219 71.1023C335.436 67.8649 334.544 64.1137 334.544 59.8485C334.544 55.5834 335.436 51.8322 337.219 48.5948C339.001 45.3574 341.446 42.8651 344.554 41.1179C347.712 39.3708 351.227 38.4972 355.098 38.4972C360.345 38.4972 364.445 40.1673 367.4 43.5074V23.3894H379.319ZM357.161 71.3336C360.166 71.3336 362.662 70.3058 364.649 68.2503C366.636 66.1435 367.629 63.3429 367.629 59.8485C367.629 56.3542 366.636 53.5793 364.649 51.5238C362.662 49.417 360.166 48.3635 357.161 48.3635C354.105 48.3635 351.583 49.417 349.597 51.5238C347.61 53.5793 346.617 56.3542 346.617 59.8485C346.617 63.3429 347.61 66.1435 349.597 68.2503C351.583 70.3058 354.105 71.3336 357.161 71.3336Z" fill="#0A2558"/>
<path d="M431.463 40.042V80.7414H424.455V74.2909C422.829 76.5435 420.773 78.2585 418.284 79.4359C415.796 80.6134 413.054 81.2021 410.057 81.2021C406.147 81.2021 402.643 80.3318 399.545 78.5912C396.448 76.8506 394.01 74.4189 392.233 71.2961C390.506 68.122 389.643 64.4872 389.643 60.3917C389.643 56.2961 390.506 52.6869 392.233 49.5641C394.01 46.4412 396.448 44.0095 399.545 42.2689C402.643 40.5283 406.147 39.658 410.057 39.658C412.952 39.658 415.618 40.2211 418.056 41.3474C420.493 42.4225 422.525 44.0351 424.15 46.1853V40.042H431.463ZM410.667 74.7517C413.206 74.7517 415.517 74.1629 417.599 72.9855C419.681 71.7568 421.306 70.0674 422.474 67.9172C423.642 65.7159 424.226 63.2074 424.226 60.3917C424.226 57.576 423.642 55.0931 422.474 52.9429C421.306 50.7416 419.681 49.0521 417.599 47.8747C415.517 46.6972 413.206 46.1085 410.667 46.1085C408.077 46.1085 405.741 46.6972 403.659 47.8747C401.627 49.0521 400.002 50.7416 398.784 52.9429C397.616 55.0931 397.032 57.576 397.032 60.3917C397.032 63.2074 397.616 65.7159 398.784 67.9172C400.002 70.0674 401.627 71.7568 403.659 72.9855C405.741 74.1629 408.077 74.7517 410.667 74.7517Z" fill="#0A2558"/>
<path d="M466.552 78.3609C465.486 79.2824 464.165 79.9991 462.591 80.511C461.017 80.9718 459.392 81.2021 457.716 81.2021C453.653 81.2021 450.504 80.1015 448.27 77.9001C446.035 75.6988 444.918 72.5503 444.918 68.4548V31.1342H452.231V40.042H463.81V46.1085H452.231V68.1476C452.231 70.349 452.764 72.0384 453.831 73.2158C454.948 74.3933 456.522 74.982 458.554 74.982C460.788 74.982 462.692 74.3421 464.267 73.0623L466.552 78.3609Z" fill="#0A2558"/>
<path d="M492.219 74.7517C497.044 74.7517 500.929 73.1134 503.874 69.837L507.835 74.5981C506.058 76.7482 503.798 78.3865 501.056 79.5127C498.364 80.639 495.343 81.2021 491.991 81.2021C487.725 81.2021 483.942 80.3318 480.641 78.5912C477.34 76.7994 474.775 74.3165 472.947 71.1425C471.17 67.9684 470.281 64.3848 470.281 60.3917C470.281 56.4497 471.144 52.8917 472.871 49.7177C474.648 46.5436 477.061 44.0863 480.108 42.3457C483.205 40.5539 486.684 39.658 490.544 39.658C494.2 39.658 497.526 40.5027 500.522 42.1921C503.519 43.8303 505.905 46.1597 507.683 49.1801C509.46 52.2006 510.374 55.6818 510.425 59.6238L478.355 65.9207C479.371 68.7363 481.072 70.9121 483.459 72.4479C485.897 73.9838 488.817 74.7517 492.219 74.7517ZM490.544 45.8781C488.004 45.8781 485.719 46.4668 483.688 47.6443C481.707 48.8218 480.158 50.4856 479.041 52.6357C477.924 54.7347 477.365 57.192 477.365 60.0077V60.7756L503.189 55.861C502.528 52.8917 501.056 50.4856 498.77 48.6426C496.485 46.7996 493.743 45.8781 490.544 45.8781Z" fill="#0A2558"/>
<path fill-rule="evenodd" clip-rule="evenodd" d="M130.941 48.158L130.941 48.1379C130.816 35.1052 124.365 25.1358 114.634 20.7908C108.244 17.9374 100.975 17.7727 94.1834 20.2535C86.1352 3.37057 67.963 -1.96369 53.5351 0.615593C45.5963 2.03474 37.3702 5.63966 31.4075 12.2216C26.3427 17.8122 23.1953 25.2482 23.048 34.4787C17.0756 35.0926 11.9004 37.2202 7.91709 40.736C2.66092 45.3755 0 51.9781 0 59.1821C0 69.158 5.11377 75.2249 9.75294 78.9557C16.0328 84.0062 22.2892 84.0035 30.9749 83.9998L121.228 83.9981C126.575 83.998 130.905 79.6468 130.941 74.2765V48.1737L130.941 48.158ZM78.1667 38.4487C79.2519 33.6688 81.7045 29.3573 85.1667 26.0107C79.8692 13.552 66.7812 9.0581 55.3815 11.096C49.091 12.2205 43.2142 14.9797 39.2131 19.3965C35.3427 23.6689 32.8213 29.9255 33.8329 39.0752L34.5217 45.3078L28.3043 44.9789C21.9912 44.6448 17.6134 46.3299 14.8816 48.7415C12.176 51.1297 10.5672 54.6773 10.5672 59.1821C10.5672 64.8251 13.2233 68.1262 16.346 70.6375C19.4742 73.1533 21.9417 73.3553 32.0063 73.3553L120.374 73.3539V48.2163C120.276 38.8543 115.844 32.9738 110.352 30.5217C105.545 28.375 99.5617 28.6727 94.0882 32.0673L93.7912 32.2512C92.5187 33.2636 91.3825 34.4319 90.3389 35.6818C88.7065 38.0117 87.879 40.6989 87.7996 43.596C87.7204 46.4858 88.4978 49.3364 90.0361 51.7875C90.7657 52.9489 91.006 54.3568 90.7011 55.6995C90.3963 57.0417 89.5739 58.1998 88.4237 58.9247C87.2755 59.6487 85.8908 59.8842 84.5735 59.5835C83.255 59.2826 82.1022 58.467 81.3739 57.3077C77.8531 51.6993 76.6983 44.9148 78.1667 38.4487Z" fill="#0086FF"/>
<script xmlns=""/></svg>