<?xml version="1.0" encoding="utf-8"?>
<svg width="130.941px" height="84px" viewBox="0 0 130.941 84" version="1.1" xmlns:xlink="http://www.w3.org/1999/xlink" xmlns="http://www.w3.org/2000/svg">
  <path d="M130.941 48.158L130.941 48.1379C130.816 35.1052 124.365 25.1358 114.634 20.7908C108.244 17.9374 100.975 17.7727 94.1834 20.2535C86.1352 3.37057 67.963 -1.96369 53.5351 0.615593C45.5963 2.03474 37.3702 5.63966 31.4075 12.2216C26.3427 17.8122 23.1953 25.2482 23.048 34.4787C17.0756 35.0926 11.9004 37.2202 7.91709 40.736C2.66092 45.3755 0 51.9781 0 59.1821C0 69.158 5.11377 75.2249 9.75294 78.9557C16.0328 84.0062 22.2892 84.0035 30.9749 83.9998L121.228 83.9981C126.575 83.998 130.905 79.6468 130.941 74.2765L130.941 48.1737L130.941 48.158L130.941 48.158ZM78.1667 38.4487C79.2519 33.6688 81.7045 29.3573 85.1667 26.0107C79.8692 13.552 66.7812 9.0581 55.3815 11.096C49.091 12.2205 43.2142 14.9797 39.2131 19.3965C35.3427 23.6689 32.8213 29.9255 33.8329 39.0752L34.5217 45.3078L28.3043 44.9789C21.9912 44.6448 17.6134 46.3299 14.8816 48.7415C12.176 51.1297 10.5672 54.6773 10.5672 59.1821C10.5672 64.8251 13.2233 68.1262 16.346 70.6375C19.4742 73.1533 21.9417 73.3553 32.0063 73.3553L120.374 73.3539L120.374 48.2163C120.276 38.8543 115.844 32.9738 110.352 30.5217C105.545 28.375 99.5617 28.6727 94.0882 32.0673L93.7912 32.2512C92.5187 33.2636 91.3825 34.4319 90.3389 35.6818C88.7065 38.0117 87.879 40.6989 87.7996 43.596C87.7204 46.4858 88.4978 49.3364 90.0361 51.7875C90.7657 52.9489 91.006 54.3568 90.7011 55.6995C90.3963 57.0417 89.5739 58.1998 88.4237 58.9247C87.2755 59.6487 85.8908 59.8842 84.5735 59.5835C83.255 59.2826 82.1022 58.467 81.3739 57.3077C77.8531 51.6993 76.6983 44.9148 78.1667 38.4487L78.1667 38.4487Z" id="Shape" fill="#0086FF" fill-rule="evenodd" stroke="none" />
</svg>